<svg width="56" height="56" viewBox="0 0 56 56" fill="none" xmlns="http://www.w3.org/2000/svg">
<circle cx="28" cy="28" r="27.5" stroke="url(#paint0_linear_74_1824)"/>
<path d="M26.6665 24H29.3332V21.3333H26.6665M27.9998 38.6666C22.1198 38.6666 17.3332 33.88 17.3332 28C17.3332 22.12 22.1198 17.3333 27.9998 17.3333C33.8798 17.3333 38.6665 22.12 38.6665 28C38.6665 33.88 33.8798 38.6666 27.9998 38.6666ZM27.9998 14.6666C26.2489 14.6666 24.5151 15.0115 22.8974 15.6816C21.2797 16.3516 19.8099 17.3338 18.5717 18.5719C16.0713 21.0724 14.6665 24.4637 14.6665 28C14.6665 31.5362 16.0713 34.9276 18.5717 37.428C19.8099 38.6662 21.2797 39.6483 22.8974 40.3184C24.5151 40.9884 26.2489 41.3333 27.9998 41.3333C31.5361 41.3333 34.9274 39.9285 37.4279 37.428C39.9284 34.9276 41.3332 31.5362 41.3332 28C41.3332 26.249 40.9883 24.5152 40.3182 22.8975C39.6482 21.2798 38.666 19.81 37.4279 18.5719C36.1898 17.3338 34.72 16.3516 33.1023 15.6816C31.4846 15.0115 29.7508 14.6666 27.9998 14.6666ZM26.6665 34.6666H29.3332V26.6666H26.6665V34.6666Z" fill="url(#paint1_linear_74_1824)"/>
<defs>
<linearGradient id="paint0_linear_74_1824" x1="0" y1="28" x2="56" y2="28" gradientUnits="userSpaceOnUse">
<stop stop-color="#007ADF"/>
<stop offset="1" stop-color="#00ECBC"/>
</linearGradient>
<linearGradient id="paint1_linear_74_1824" x1="14.6665" y1="28" x2="41.3332" y2="28" gradientUnits="userSpaceOnUse">
<stop stop-color="#007ADF"/>
<stop offset="1" stop-color="#00ECBC"/>
</linearGradient>
</defs>
</svg>
