<svg width="56" height="56" viewBox="0 0 56 56" fill="none" xmlns="http://www.w3.org/2000/svg">
<circle cx="28" cy="28" r="27.5" stroke="url(#paint0_linear_74_1841)"/>
<path d="M27.9998 25.3333C29.4143 25.3333 30.7709 24.7714 31.7711 23.7712C32.7713 22.771 33.3332 21.4144 33.3332 20C33.3332 18.5855 32.7713 17.2289 31.7711 16.2287C30.7709 15.2285 29.4143 14.6666 27.9998 14.6666C26.5853 14.6666 25.2288 15.2285 24.2286 16.2287C23.2284 17.2289 22.6665 18.5855 22.6665 20C22.6665 21.4144 23.2284 22.771 24.2286 23.7712C25.2288 24.7714 26.5853 25.3333 27.9998 25.3333ZM19.3332 29.3333C20.2172 29.3333 21.0651 28.9821 21.6902 28.357C22.3153 27.7319 22.6665 26.884 22.6665 26C22.6665 25.1159 22.3153 24.2681 21.6902 23.6429C21.0651 23.0178 20.2172 22.6666 19.3332 22.6666C18.4491 22.6666 17.6013 23.0178 16.9761 23.6429C16.351 24.2681 15.9998 25.1159 15.9998 26C15.9998 26.884 16.351 27.7319 16.9761 28.357C17.6013 28.9821 18.4491 29.3333 19.3332 29.3333ZM39.9998 26C39.9998 26.884 39.6486 27.7319 39.0235 28.357C38.3984 28.9821 37.5506 29.3333 36.6665 29.3333C35.7824 29.3333 34.9346 28.9821 34.3095 28.357C33.6844 27.7319 33.3332 26.884 33.3332 26C33.3332 25.1159 33.6844 24.2681 34.3095 23.6429C34.9346 23.0178 35.7824 22.6666 36.6665 22.6666C37.5506 22.6666 38.3984 23.0178 39.0235 23.6429C39.6486 24.2681 39.9998 25.1159 39.9998 26ZM27.9998 26.6666C29.7679 26.6666 31.4636 27.369 32.7139 28.6192C33.9641 29.8695 34.6665 31.5652 34.6665 33.3333V41.3333H21.3332V33.3333C21.3332 31.5652 22.0355 29.8695 23.2858 28.6192C24.536 27.369 26.2317 26.6666 27.9998 26.6666ZM18.6665 33.3333C18.6665 32.4093 18.7998 31.5173 19.0505 30.6746L18.8238 30.6933C17.681 30.8188 16.6247 31.3617 15.8575 32.218C15.0903 33.0743 14.6662 34.1836 14.6665 35.3333V41.3333H18.6665V33.3333ZM41.3332 41.3333V35.3333C41.3333 34.1444 40.8797 33.0004 40.065 32.1346C39.2503 31.2688 38.1358 30.7466 36.9492 30.6746C37.1985 31.5173 37.3332 32.4093 37.3332 33.3333V41.3333H41.3332Z" fill="url(#paint1_linear_74_1841)"/>
<defs>
<linearGradient id="paint0_linear_74_1841" x1="0" y1="28" x2="56" y2="28" gradientUnits="userSpaceOnUse">
<stop stop-color="#007ADF"/>
<stop offset="1" stop-color="#00ECBC"/>
</linearGradient>
<linearGradient id="paint1_linear_74_1841" x1="14.6665" y1="28" x2="41.3332" y2="28" gradientUnits="userSpaceOnUse">
<stop stop-color="#007ADF"/>
<stop offset="1" stop-color="#00ECBC"/>
</linearGradient>
</defs>
</svg>
