<svg width="56" height="56" viewBox="0 0 56 56" fill="none" xmlns="http://www.w3.org/2000/svg">
<circle cx="28" cy="28" r="27.5" stroke="url(#paint0_linear_74_1816)"/>
<path d="M27.9999 34.9029V37.2115M27.9999 23.4515V25.6001M27.9999 42.8343C35.9999 42.8343 41.7142 40.0001 41.7142 33.6915C41.7142 26.8343 38.2856 22.2629 31.4285 18.8343L34.1256 15.3601C34.2627 15.1321 34.337 14.872 34.3411 14.606C34.3452 14.3401 34.2789 14.0778 34.1489 13.8458C34.019 13.6137 33.83 13.4201 33.6011 13.2847C33.3722 13.1492 33.1116 13.0766 32.8456 13.0743H23.1542C22.8883 13.0766 22.6276 13.1492 22.3988 13.2847C22.1699 13.4201 21.9809 13.6137 21.8509 13.8458C21.721 14.0778 21.6547 14.3401 21.6588 14.606C21.6629 14.872 21.7372 15.1321 21.8742 15.3601L24.5714 18.8572C17.7142 22.3086 14.2856 26.8801 14.2856 33.7372C14.2856 40.0001 19.9999 42.8343 27.9999 42.8343Z" stroke="url(#paint1_linear_74_1816)" stroke-width="2" stroke-linecap="round" stroke-linejoin="round"/>
<path d="M25.7141 33.8515C25.993 34.1826 26.344 34.4454 26.7402 34.6197C27.1364 34.794 27.5673 34.8753 27.9998 34.8572C28.6608 34.9023 29.3136 34.6893 29.8208 34.2631C30.3281 33.8368 30.6503 33.2305 30.7198 32.5715C30.6503 31.9126 30.3281 31.3063 29.8208 30.88C29.3136 30.4537 28.6608 30.2408 27.9998 30.2858C27.3387 30.3309 26.686 30.1179 26.1787 29.6916C25.6715 29.2654 25.3492 28.659 25.2798 28.0001C25.3437 27.3389 25.6643 26.7291 26.1729 26.3017C26.6815 25.8743 27.3374 25.6634 27.9998 25.7144C28.4247 25.6884 28.85 25.7569 29.2453 25.915C29.6405 26.0731 29.9958 26.3168 30.2855 26.6287" stroke="url(#paint2_linear_74_1816)" stroke-width="2" stroke-linecap="round" stroke-linejoin="round"/>
<defs>
<linearGradient id="paint0_linear_74_1816" x1="0" y1="28" x2="56" y2="28" gradientUnits="userSpaceOnUse">
<stop stop-color="#007ADF"/>
<stop offset="1" stop-color="#00ECBC"/>
</linearGradient>
<linearGradient id="paint1_linear_74_1816" x1="14.2856" y1="27.9543" x2="41.7142" y2="27.9543" gradientUnits="userSpaceOnUse">
<stop stop-color="#007ADF"/>
<stop offset="1" stop-color="#00ECBC"/>
</linearGradient>
<linearGradient id="paint2_linear_74_1816" x1="25.2798" y1="30.285" x2="30.7198" y2="30.285" gradientUnits="userSpaceOnUse">
<stop stop-color="#007ADF"/>
<stop offset="1" stop-color="#00ECBC"/>
</linearGradient>
</defs>
</svg>
